<?xml version="1.0" encoding="iso-8859-1"?>
<!-- Generator: Adobe Illustrator 19.0.0, SVG Export Plug-In . SVG Version: 6.00 Build 0)  -->
<svg xmlns="http://www.w3.org/2000/svg" xmlns:xlink="http://www.w3.org/1999/xlink" version="1.1" id="Layer_1" x="0px" y="0px" viewBox="0 0 512 512" style="enable-background:new 0 0 512 512;" xml:space="preserve" width="512" height="512">
<g>
	<g>
		<path style="fill:#3A484A;" d="M471.646,43.05H50.606v331.91h421.04c15.791,0,28.592-12.801,28.592-28.592V71.642    C500.238,55.851,487.437,43.05,471.646,43.05z"/>
		<path style="fill:#C86D5C;" d="M75.924,65.073V20.372c0-7.109-5.763-12.872-12.872-12.872H38.16    c-7.109,0-12.872,5.763-12.872,12.872V504.5h50.636V352.938l-9.113-13.526l9.113-13.526V92.125l-9.433-13.526L75.924,65.073z"/>
		<path style="fill:#EFEDEE;" d="M25.288,65.073c-7.47,0-13.526,6.056-13.526,13.526v0c0,7.47,6.056,13.526,13.526,13.526h50.636    V65.073H25.288z"/>
		<path style="fill:#EFEDEE;" d="M25.288,325.885c-7.47,0-13.526,6.056-13.526,13.526v0c0,7.47,6.056,13.526,13.526,13.526h50.636    v-27.052H25.288z"/>
		<path style="fill:#D2D2D2;" d="M381.09,292.647c-0.553,0.553-1.059,1.136-1.527,1.738L190.281,105.103    c0.602-0.468,1.185-0.973,1.738-1.527c7.173-7.173,7.173-18.803,0-25.976c-7.173-7.173-18.803-7.173-25.976,0    c-4.542,4.542-6.204,10.871-4.994,16.724c-5.853-1.21-12.182,0.452-16.724,4.994c-7.173,7.173-7.173,18.803,0,25.976    c7.173,7.173,18.803,7.173,25.976,0c0.553-0.553,1.059-1.136,1.527-1.738L361.11,312.838c-0.602,0.468-1.185,0.973-1.738,1.527    c-7.173,7.173-7.173,18.803,0,25.976s18.803,7.173,25.976,0c4.542-4.542,6.204-10.871,4.994-16.724    c5.853,1.21,12.182-0.452,16.724-4.994c7.173-7.173,7.173-18.803,0-25.976C399.893,285.474,388.263,285.474,381.09,292.647z"/>
		<path style="fill:#D2D2D2;" d="M170.301,292.647c0.553,0.553,1.059,1.136,1.527,1.738L361.11,105.103    c-0.602-0.468-1.185-0.973-1.738-1.527c-7.173-7.173-7.173-18.803,0-25.976c7.173-7.173,18.803-7.173,25.976,0    c4.542,4.542,6.204,10.871,4.994,16.724c5.853-1.21,12.182,0.452,16.724,4.994c7.173,7.173,7.173,18.803,0,25.976    c-7.173,7.173-18.803,7.173-25.976,0c-0.553-0.553-1.059-1.136-1.527-1.738L190.281,312.838c0.602,0.468,1.185,0.973,1.738,1.527    c7.173,7.173,7.173,18.803,0,25.976c-7.173,7.173-18.803,7.173-25.976,0c-4.542-4.542-6.204-10.871-4.994-16.724    c-5.853,1.21-12.182-0.452-16.724-4.994c-7.173-7.173-7.173-18.803,0-25.976C151.498,285.474,163.128,285.474,170.301,292.647z"/>
		<path style="fill:#EFEDEE;" d="M275.695,109.921c-58.388,0-105.721,47.333-105.721,105.721c0,27.757,10.704,43.974,28.204,53.355    c6.672,3.577,10.886,10.48,10.886,18.051v3.969c0,9.077,7.116,16.749,16.19,16.998c9.414,0.258,17.126-7.296,17.126-16.651    c0,9.2,7.458,16.658,16.658,16.658c9.2,0,16.658-7.458,16.658-16.658c0,9.2,7.458,16.658,16.658,16.658    s16.658-7.458,16.658-16.658c0,9.355,7.712,16.909,17.126,16.651c9.073-0.249,16.19-7.921,16.19-16.998v-3.969    c0-7.57,4.214-14.474,10.886-18.051c17.499-9.381,28.204-25.597,28.204-53.355C381.416,157.254,334.083,109.921,275.695,109.921z"/>
		<rect x="25.288" y="92.125" style="fill:#AD4F3D;" width="50.636" height="30.822"/>
		<rect x="25.288" y="352.937" style="fill:#AD4F3D;" width="50.636" height="30.822"/>
	</g>
	<g>
		<path d="M221.496,256.181c4.142,0,7.5-3.358,7.5-7.5v-12.218c0-4.142-3.358-7.5-7.5-7.5s-7.5,3.358-7.5,7.5v12.218    C213.996,252.823,217.354,256.181,221.496,256.181z"/>
		<path d="M329.896,256.181c4.142,0,7.5-3.358,7.5-7.5v-12.218c0-4.142-3.358-7.5-7.5-7.5s-7.5,3.358-7.5,7.5v12.218    C322.396,252.823,325.754,256.181,329.896,256.181z"/>
		<path d="M507.738,346.368V144.794c0-4.142-3.358-7.5-7.5-7.5s-7.5,3.358-7.5,7.5v201.573c0,11.63-9.462,21.092-21.092,21.092    H161.561c-4.142,0-7.5,3.358-7.5,7.5s3.358,7.5,7.5,7.5h310.085C491.547,382.46,507.738,366.269,507.738,346.368z"/>
		<path d="M507.738,71.642c0-19.901-16.191-36.092-36.092-36.092H83.425V20.372C83.425,9.139,74.286,0,63.053,0H38.16    C26.927,0,17.788,9.139,17.788,20.372v38.608c-7.896,3.03-13.526,10.67-13.526,19.62c0,8.949,5.63,16.59,13.526,19.619v221.573    c-7.896,3.03-13.526,10.67-13.526,19.62c0,8.949,5.63,16.59,13.526,19.619V504.5c0,4.142,3.358,7.5,7.5,7.5h50.636    c4.142,0,7.5-3.358,7.5-7.5V382.46h48.136c4.142,0,7.5-3.358,7.5-7.5s-3.358-7.5-7.5-7.5H83.425v-14.522    c0-4.142-3.358-7.5-7.5-7.5H25.288c-3.323,0-6.026-2.704-6.026-6.026s2.704-6.026,6.026-6.026h50.636c4.142,0,7.5-3.358,7.5-7.5    V92.125c0-4.142-3.358-7.5-7.5-7.5H25.288c-3.323,0-6.026-2.704-6.026-6.026s2.704-6.026,6.026-6.026h50.636    c4.142,0,7.5-3.358,7.5-7.5V50.55h388.222c11.63,0,21.092,9.462,21.092,21.092v43.152c0,4.142,3.358,7.5,7.5,7.5    s7.5-3.358,7.5-7.5V71.642z M68.425,360.438v14.522V497H32.788V360.438H68.425z M68.425,99.625v218.76H32.788V99.625H68.425z     M68.425,57.573H32.788V20.372c0-2.962,2.41-5.372,5.372-5.372h24.893c2.962,0,5.372,2.41,5.372,5.372V43.05V57.573z"/>
		<path d="M157.314,279.768c-22.333,0-34.076,27.629-18.721,43.72c3.955,4.128,9.194,6.886,14.856,7.728    c0.809,5.388,3.315,10.453,7.291,14.429c9.972,9.974,26.621,9.959,36.583,0c8.828-8.829,9.928-22.504,3.3-32.542l6.522-6.522    c4.311,5.276,10.735,8.734,17.903,8.931c6.701,0.192,12.844-2.389,17.332-6.667c4.337,4.135,10.207,6.677,16.658,6.677    s12.32-2.542,16.658-6.677c4.337,4.135,10.206,6.677,16.657,6.677s12.32-2.542,16.658-6.677    c4.337,4.135,10.206,6.677,16.662,6.677c7.186,0,14.041-3.393,18.573-8.94l6.523,6.523c-6.627,10.037-5.527,23.713,3.301,32.542    c9.974,9.976,26.618,9.964,36.583,0c3.976-3.976,6.482-9.04,7.291-14.429c5.443-0.81,10.465-3.327,14.426-7.289    c15.898-15.9,4.219-44.159-18.291-44.159c-5.145,0-10.061,1.492-14.254,4.272l-14.176-14.176    c15.447-11.94,23.268-30.126,23.268-54.222c0-25.518-8.49-49.089-22.788-68.044l13.695-13.695    c4.192,2.78,9.108,4.272,14.254,4.272c22.624,0,34.218-28.232,18.292-44.16c-3.962-3.961-8.984-6.479-14.427-7.288    c-0.808-5.389-3.314-10.453-7.29-14.429c-9.975-9.974-26.619-9.965-36.583,0c-8.829,8.829-9.929,22.504-3.301,32.542    l-14.924,14.924c-17.438-10.979-38.063-17.342-60.148-17.342s-42.709,6.362-60.148,17.342l-14.921-14.921    c2.78-4.192,4.271-9.108,4.271-14.254c0-6.91-2.69-13.405-7.576-18.291c-9.973-9.973-26.62-9.964-36.583,0    c-3.976,3.976-6.482,9.04-7.291,14.429c-5.443,0.809-10.465,3.327-14.427,7.289c-10.085,10.086-10.085,26.497,0,36.583    c8.566,8.566,22.435,10.008,32.545,3.304l13.695,13.695c-14.298,18.955-22.788,42.526-22.788,68.044    c0,24.096,7.821,42.282,23.268,54.222l-14.176,14.176C167.375,281.26,162.459,279.768,157.314,279.768z M380.03,301.871    c2.929-0.183,4.449-2.006,6.364-3.92c4.189-4.189,11.184-4.186,15.369,0c4.238,4.237,4.238,11.132,0.001,15.37    c-2.568,2.568-6.349,3.688-9.902,2.952c-5.195-1.076-9.937,3.671-8.864,8.863c0.746,3.606-0.358,7.308-2.952,9.902    c-4.19,4.191-11.182,4.187-15.369,0c-4.53-4.53-4.013-12.358,1.034-16.275c3.515-2.729,3.849-8.083,0.704-11.228l-16.587-16.587    v-3.9c0-3.11,1.2-6.206,3.258-8.534l21.175,21.175C375.781,301.21,377.88,302.005,380.03,301.871z M366.414,110.406    c3.15-3.15,2.808-8.501-0.704-11.228c-5.087-3.954-5.602-11.706-1.034-16.275c4.191-4.191,11.185-4.186,15.37,0    c2.594,2.594,3.698,6.295,2.952,9.901c-1.075,5.195,3.674,9.939,8.864,8.864c3.48-0.721,7.309,0.36,9.901,2.952    c4.238,4.237,4.238,11.132,0.001,15.369c-4.567,4.566-12.32,4.057-16.278-1.037c-2.728-3.511-8.084-3.842-11.225-0.701    l-17.923,17.924c-2.601-2.64-5.329-5.151-8.17-7.522C348.167,128.654,366.395,110.425,366.414,110.406z M171.828,116.057    c-2.988-0.017-4.865,1.966-6.83,3.934c-4.188,4.195-11.185,4.184-15.37,0c-4.237-4.237-4.237-11.132,0-15.369    c2.57-2.57,6.347-3.689,9.902-2.953c5.195,1.076,9.936-3.679,8.864-8.864c-0.746-3.605,0.358-7.307,2.952-9.901    c4.191-4.191,11.183-4.187,15.37,0c4.531,4.531,4.011,12.356-1.034,16.275c-3.514,2.73-3.849,8.083-0.704,11.228l18.248,18.248    c-2.841,2.371-5.569,4.882-8.17,7.522c0,0-17.909-17.909-17.923-17.924C175.787,116.908,173.799,116.069,171.828,116.057z     M177.475,215.642c0-54.159,44.062-98.22,98.221-98.22c54.159,0,98.22,44.062,98.22,98.22c0,23.024-7.705,37.877-24.247,46.745    c-9.155,4.908-14.843,14.357-14.843,24.661c0,0,0,3.965,0,3.968c0,4.993-4.023,9.504-9.158,9.504    c-5.049,0-9.158-4.108-9.158-9.157c0-4.142-3.358-7.5-7.5-7.5s-7.5,3.358-7.5,7.5c0,5.049-4.108,9.157-9.158,9.157    c-5.049,0-9.157-4.108-9.157-9.157c0-4.142-3.358-7.5-7.5-7.5s-7.5,3.358-7.5,7.5c0,5.049-4.108,9.157-9.158,9.157    c-5.049,0-9.158-4.108-9.158-9.157c0-4.142-3.358-7.5-7.5-7.5s-7.5,3.358-7.5,7.5c0,5.049-4.108,9.157-9.158,9.157    c-4.478,0-8.294-3.565-9.012-7.927c-0.522-3.182,0.018-6.475-0.464-9.685c-1.3-8.645-6.613-16.28-14.525-20.522    C185.18,253.519,177.475,238.666,177.475,215.642z M177.132,299.688l21.175-21.175c2.069,2.328,3.258,5.418,3.258,8.534v3.9    c0,0-16.579,16.579-16.587,16.587c-3.146,3.146-2.806,8.503,0.704,11.228c5.093,3.951,5.598,11.71,1.034,16.275    c-4.188,4.187-11.186,4.183-15.369,0c-2.595-2.595-3.698-6.296-2.953-9.902c0.947-4.582-2.67-9.019-7.345-9.019    c-1.259,0-2.476,0.382-3.741,0.382c-2.902,0-5.629-1.129-7.68-3.179c-6.679-6.679-1.773-18.554,7.685-18.552    c3.341,0.001,6.546,1.586,8.592,4.219C168.633,302.496,173.991,302.829,177.132,299.688z"/>
	</g>
</g>















</svg>
