<svg xmlns="http://www.w3.org/2000/svg" viewBox="0 0 512 512"><path d="M501.3 64C472 64 448 40 448 10.7a10.7 10.7 0 10-21.3 0c0 29.4-24 53.3-53.4 53.3a10.7 10.7 0 100 21.3 53 53 0 0121 4.4c-8.2 4.2-16.6 9.3-25 17-11.2.4-40.2 2.2-64 10.5l-.3-.2a114 114 0 00-42.5-27.8c-16.8-5.6-31-3.8-40 5.3l-214 214c-9 9-11 23.2-5.3 40A107.7 107.7 0 0023.8 383L16 391c-9 9-11 23.2-5.3 40a114 114 0 0027.8 42.6c20 20 42.4 30.9 60.2 30.9 9 0 16.6-2.7 22.4-8.4l8-8c17.8 15.2 36.6 23.9 52.1 23.9 8.9 0 16.6-2.7 22.3-8.4l214-214c9-9 11-23.3 5.4-40A114 114 0 00395 207c-2.4-2.5-5-4.7-7.5-6.9a182 182 0 00-6.4-22.4c-8-24-12.3-40.8-.2-52.8a102 102 0 0129.2-19.4l3.3-1.6a52.9 52.9 0 0113.3 34.8 10.7 10.7 0 1021.3 0c0-29.4 24-53.4 53.3-53.4a10.7 10.7 0 100-21.3zM320 135a202 202 0 0127.5-5.1 315 315 0 00-17.4 22.5c-2.5-5.7-6-11.6-10.1-17.4zm32.5 44.1a60.5 60.5 0 00-13-2.8 508 508 0 0113.8-19.5c1.5 8.9 4.2 17.5 6.9 25.6-2.6-1.2-5.2-2.4-7.7-3.3z" fill="#303c42"/><path d="M437.3 100.2c-1.5-2.6-3.7-4.7-5.6-7.1A96 96 0 00445 82.2a10.7 10.7 0 10-15.1-15c-4.5 4.5-9.1 7.9-13.8 10.8-1.5-1-2.7-2.4-4.2-3.3A75.2 75.2 0 00437.3 49 75.2 75.2 0 00463 74.7a75.2 75.2 0 00-25.6 25.5z" fill="#ffca28"/><g fill="#d32f2f"><path d="M301.8 267.1c-11-3.7-23.6-12-34.3-22.6a94 94 0 01-22.6-34.3c-2.8-8.3-2.7-15.3.1-18.2 1.5-1.4 4-2.2 7.2-2.2s7 .7 11 2a85.3 85.3 0 0126 15.3c-3 3.3-5.9 6.5-9.4 10a10.7 10.7 0 1015 15.1c3.6-3.5 6.5-6.8 9.5-10 7.4 8.7 13 18 15.8 26.6 2.8 8.3 2.7 15.3-.1 18.2-3 2.8-9.9 2.9-18.2.1zM255.7 109.4a89 89 0 0129.2 18 44.6 44.6 0 00-5.1 4.4 10.7 10.7 0 1015 15c1.4-1.2 3-2.5 4.8-3.6a65.7 65.7 0 0115 32.1l-8.1 11.2c-3.3.2-7.3-.4-11.9-2-7-4.9-14.3-8.8-21.4-11.5-5-3.7-9.4-7.3-13.2-11a94 94 0 01-22.6-34.3c-2.8-8.3-2.7-15.3.1-18.2 2.9-2.9 9.9-3 18.2-.1zM23.4 341.7c-2.8-8.3-2.7-15.3.1-18.2l192.8-192.7c.3 1.2.4 2.4.8 3.7 4.1 12.1 12 24.8 22.4 36.5a27.5 27.5 0 00-9.5 6L38.9 368a85.8 85.8 0 01-15.5-26.3z"/></g><path d="M30.9 355.3C28 347 28.2 340 31 337L222.2 146c-2-3.9-3.8-7.7-5-11.5-.5-1.3-.6-2.5-1-3.7L23.6 323.5c-2.8 3-2.9 9.9-.1 18.2 1.9 5.8 5.4 11.8 9.5 17.9-.6-1.4-1.6-3-2-4.3z" opacity=".2" fill="#fff"/><path d="M53.5 458.5A94 94 0 0131 424.2c-2.8-8.3-2.7-15.3.1-18.1l192.8-192.8c.3 1.2.4 2.4.8 3.7a114 114 0 0027.9 42.5 114 114 0 0042.5 27.9l3.6.9L106 481c-6 6-29.6.3-52.5-22.5z" fill="#d32f2f"/><path d="M295 287.4c-4.4-1.5-9-3.7-13.4-6L94 469c-5.5 5.5-25.4 1.1-46.1-16.8 1.8 2.2 3.6 4.3 5.6 6.3C76.4 481.3 100 487 106 481l192.6-192.7c-1.2-.4-2.3-.5-3.6-1z" opacity=".1"/><path d="M37.7 422.3l192.6-192.6a87.9 87.9 0 01-5.7-12.7c-.4-1.3-.5-2.5-.8-3.7L31 406c-2.8 2.8-2.9 9.8-.1 18.1C32 428 34 432 36.4 436c-1.4-6.3-1-11.4 1.3-13.7z" opacity=".2" fill="#fff"/><path d="M188.5 488.5c-5.4 5.4-24.4 1.4-44.6-15.4l191.1-191c2.7-2.8 4.6-6 6-9.6a109.3 109.3 0 0036.5 22.4l3.6.9-192.6 192.7z" fill="#d32f2f"/><path d="M344.8 289.6c2.7-2.6 4.5-5.8 5.9-9.3-3.3-2.4-6.6-5-9.7-7.8a27.6 27.6 0 01-6 9.5L144 473.1c3.3 2.9 6.7 5.2 10 7.4l190.8-190.9z" opacity=".1"/><path d="M402.6 256.3c2.8 8.3 2.7 15.3-.1 18.2-2.9 2.8-9.9 2.9-18.2.1-11-3.7-23.6-12-34.3-22.6-3.8-3.8-7.4-8.2-11-13.2-2.7-7.1-6.6-14.4-11.6-21.5-2.6-8.2-2.7-15 .1-17.8 2.9-2.8 9.9-3 18.2-.1a80.6 80.6 0 0121.4 11.8c0 2.5-.6 4.6-2 6a10.7 10.7 0 1015.1 15c1.7-1.7 3-3.4 4.2-5.3 8.5 9.5 15 20 18.2 29.4z" fill="#d32f2f"/><path d="M301.8 267.1c-11-3.7-23.6-12-34.3-22.6a94 94 0 01-22.6-34.3c-2.8-8.3-2.7-15.3.1-18.2 1.5-1.4 4-2.2 7.2-2.2s7 .7 11 2a85.3 85.3 0 0126 15.3c-3 3.3-5.9 6.5-9.4 10a10.7 10.7 0 1015 15.1c3.6-3.5 6.5-6.8 9.5-10 7.4 8.7 13 18 15.8 26.6 2.8 8.3 2.7 15.3-.1 18.2-3 2.8-9.9 2.9-18.2.1zM255.7 109.4a89 89 0 0129.2 18 44.6 44.6 0 00-5.1 4.4 10.7 10.7 0 1015 15c1.4-1.2 3-2.5 4.8-3.6a65.7 65.7 0 0115 32.1l-8.1 11.2c-3.3.2-7.3-.4-11.9-2-7-4.9-14.3-8.8-21.4-11.5-5-3.7-9.4-7.3-13.2-11a94 94 0 01-22.6-34.3c-2.8-8.3-2.7-15.3.1-18.2 2.9-2.9 9.9-3 18.2-.1zM402.6 256.3c2.8 8.3 2.7 15.3-.1 18.2-2.9 2.8-9.9 2.9-18.2.1-11-3.7-23.6-12-34.3-22.6-3.8-3.8-7.4-8.2-11-13.2-2.7-7.1-6.6-14.4-11.6-21.5-2.6-8.2-2.7-15 .1-17.8 2.9-2.8 9.9-3 18.2-.1a80.6 80.6 0 0121.4 11.8c0 2.5-.6 4.6-2 6a10.7 10.7 0 1015.1 15c1.7-1.7 3-3.4 4.2-5.3 8.5 9.5 15 20 18.2 29.4z" opacity=".1"/><linearGradient id="a" gradientUnits="userSpaceOnUse" x1="-43.2" y1="638.8" x2="-27.7" y2="631.5" gradientTransform="matrix(21.3333 0 0 -21.3333 996.3 13791.7)"><stop offset="0" stop-color="#fff" stop-opacity=".2"/><stop offset="1" stop-color="#fff" stop-opacity="0"/></linearGradient><path d="M501.3 64C472 64 448 40 448 10.7a10.7 10.7 0 10-21.3 0c0 29.4-24 53.3-53.4 53.3a10.7 10.7 0 100 21.3 53 53 0 0121 4.4c-8.2 4.2-16.6 9.3-25 17-11.2.4-40.2 2.2-64 10.5l-.3-.2a114 114 0 00-42.5-27.8c-16.8-5.6-31-3.8-40 5.3l-214 214c-9 9-11 23.2-5.3 40A107.7 107.7 0 0023.8 383L16 391c-9 9-11 23.2-5.3 40a114 114 0 0027.8 42.6c20 20 42.4 30.9 60.2 30.9 9 0 16.6-2.7 22.4-8.4l8-8c17.8 15.2 36.6 23.9 52.1 23.9 8.9 0 16.6-2.7 22.3-8.4l214-214c9-9 11-23.3 5.4-40A114 114 0 00395 207c-2.4-2.5-5-4.7-7.5-6.9a182 182 0 00-6.4-22.4c-8-24-12.3-40.8-.2-52.8a102 102 0 0129.2-19.4l3.3-1.6a52.9 52.9 0 0113.3 34.8 10.7 10.7 0 1021.3 0c0-29.4 24-53.4 53.3-53.4a10.7 10.7 0 100-21.3zM320 135a202 202 0 0127.5-5.1 315 315 0 00-17.4 22.5c-2.5-5.7-6-11.6-10.1-17.4zm32.5 44.1a60.5 60.5 0 00-13-2.8 508 508 0 0113.8-19.5c1.5 8.9 4.2 17.5 6.9 25.6-2.6-1.2-5.2-2.4-7.7-3.3z" fill="url(#a)"/></svg>