<svg width="385" height="385" fill="none" xmlns="http://www.w3.org/2000/svg"><path d="M206.9 1.5c-3.9-1.7-8.5-.9-11.6 2L85.5 107.4H10.7c-6 0-10.7 4.8-10.7 10.7v149.3c0 6 4.8 10.7 10.7 10.7h74.8l109.8 103.8a10.6 10.6 0 0018-7.8V11.3c0-4.2-2.5-8-6.4-9.8zm55.6 131.4L247.3 148c-3.6 3.5-4.5 9.2-1.6 13.2a53 53 0 010 62.8c-2.9 4-2 9.6 1.6 13.2l15.2 15.2c4.6 4.6 12.2 3.9 16.2-1.3a95.5 95.5 0 000-117c-4-5.3-11.6-6-16.2-1.3v.1z" fill="#000"/><path d="M338.4 72.6c-4-4.6-11.1-4.5-15.4-.3l-15.1 15.1c-4 4-4 10.4-.3 14.8a138 138 0 010 181 10.7 10.7 0 00.3 14.7L323 313a10.7 10.7 0 0015.4-.2 180.6 180.6 0 000-240.2z" fill="#000"/></svg>