<svg xmlns="http://www.w3.org/2000/svg" width="512" height="512"><path d="M471.6 43h-421v332h421a28.6 28.6 0 0028.6-28.6V71.6a28.6 28.6 0 00-28.6-28.5z" fill="#3a484a"/><path d="M76 65V20.5c0-7.1-5.8-12.9-13-12.9H38.3c-7.1 0-13 5.8-13 12.9v484.1H76V352.9l-9-13.5 9-13.5V92l-9.4-13.5 9.4-13.5z" fill="#c86d5c"/><path d="M25.3 65c-7.5 0-13.5 6.1-13.5 13.6s6 13.5 13.5 13.5h50.6v-27H25.3zM25.3 325.9a13.5 13.5 0 000 27h50.6v-27H25.3z" fill="#efedee"/><path d="M381 292.6l-1.4 1.8L190.3 105a18.4 18.4 0 001.7-27.5 18.4 18.4 0 00-31 16.7 18.3 18.3 0 1010.8 29.3l189.3 189.2a18.4 18.4 0 00-1.7 27.5 18.4 18.4 0 0031-16.7 18.3 18.3 0 10-9.3-31z" fill="#d2d2d2"/><path d="M170.3 292.6l1.5 1.8L361.1 105a18.4 18.4 0 01-1.7-27.5 18.4 18.4 0 0131 16.7 18.3 18.3 0 11-10.8 29.3L190.3 312.8a18.4 18.4 0 011.7 27.5 18.4 18.4 0 01-31-16.7 18.3 18.3 0 119.3-31z" fill="#d2d2d2"/><path d="M275.7 110A105.7 105.7 0 00170 215.5c0 27.8 10.7 44 28.2 53.4a20.5 20.5 0 0110.9 18v4a16.7 16.7 0 1033.3.3 16.7 16.7 0 1033.3 0 16.7 16.7 0 1033.3 0c0 9.4 7.7 17 17.1 16.7 9.1-.2 16.2-8 16.2-17v-4c0-7.5 4.2-14.4 11-18 17.4-9.4 28.1-25.6 28.1-53.4 0-58.3-47.3-105.7-105.7-105.7z" fill="#efedee"/><path fill="#ad4f3d" d="M25.3 92.1h50.6v30.8H25.3zM25.3 352.9h50.6v30.8H25.3z"/><g><path d="M221.5 256.2c4.1 0 7.5-3.4 7.5-7.5v-12.2a7.5 7.5 0 00-15 0v12.2c0 4.1 3.4 7.5 7.5 7.5zM329.9 256.2c4.1 0 7.5-3.4 7.5-7.5v-12.2a7.5 7.5 0 00-15 0v12.2c0 4.1 3.4 7.5 7.5 7.5z"/><path d="M507.7 346.4V144.8a7.5 7.5 0 00-15 0v201.6c0 11.6-9.4 21-21 21H161.5a7.5 7.5 0 000 15h310c20 0 36.1-16.1 36.1-36z"/><path d="M507.7 71.6c0-19.9-16.2-36-36-36H83.3V20.3C83.4 9 74.3 0 63.1 0H38a20.4 20.4 0 00-20.3 20.4V59a21 21 0 000 39.2v221.6a21 21 0 000 39.2v145.5c0 4.1 3.3 7.5 7.5 7.5h50.6c4.2 0 7.5-3.4 7.5-7.5v-122h48.2a7.5 7.5 0 000-15H83.4v-14.6c0-4.1-3.3-7.5-7.5-7.5H25.3a6 6 0 010-12h50.6c4.2 0 7.5-3.4 7.5-7.5V92c0-4.1-3.3-7.5-7.5-7.5H25.3a6 6 0 010-12h50.6c4.2 0 7.5-3.4 7.5-7.5V50.6h388.2c11.7 0 21.1 9.4 21.1 21v43.2a7.5 7.5 0 0015 0V71.6zM68.4 360.4V497H32.8V360.4h35.6zm0-260.8v218.8H32.8V99.6h35.6zm0-42H32.8V20.4c0-3 2.4-5.4 5.4-5.4H63c3 0 5.3 2.4 5.3 5.4v37.2z"/><path d="M157.3 279.8c-22.3 0-34 27.6-18.7 43.7a26 26 0 0014.8 7.7 25.8 25.8 0 0044 14.4 26 26 0 003.2-32.5l6.5-6.5a24 24 0 0035.3 2.2 24 24 0 0033.3 0 24 24 0 0033.3 0 24 24 0 0035.2-2.2l6.6 6.5a26 26 0 003.3 32.5 25.8 25.8 0 0043.9-14.4c5.4-.8 10.4-3.3 14.4-7.3 15.9-15.9 4.2-44.1-18.3-44.1-5.2 0-10 1.5-14.3 4.2L365.6 270c15.5-12 23.3-30.2 23.3-54.3 0-25.5-8.5-49-22.8-68l13.7-13.7c4.2 2.8 9.1 4.3 14.3 4.3 22.6 0 34.2-28.3 18.3-44.2-4-4-9-6.5-14.5-7.3a25.8 25.8 0 00-43.8-14.4 26 26 0 00-3.3 32.5l-15 15a112.5 112.5 0 00-120.3 0l-14.9-15a25.7 25.7 0 00-3.3-32.5 25.8 25.8 0 00-43.9 14.4 25.9 25.9 0 1018.1 47.2l13.8 13.7a112.6 112.6 0 00-22.8 68c0 24.1 7.8 42.3 23.2 54.3L171.6 284a25.7 25.7 0 00-14.3-4.2zm222.7 22c3-.1 4.5-2 6.4-3.8a11 11 0 0115.4 0 10.9 10.9 0 01-10 18.3c-5.1-1.1-9.9 3.6-8.8 8.8a10.9 10.9 0 01-18.3 10 11 11 0 011-16.3c3.5-2.8 3.9-8.1.7-11.3L349.8 291V287a13 13 0 013.3-8.5l21.2 21.2a7.5 7.5 0 005.7 2.2zm-13.6-191.4a7.6 7.6 0 00-.7-11.2 11 11 0 01-1-16.3 10.8 10.8 0 0118.3 9.9c-1 5.2 3.7 10 8.9 8.9a10.9 10.9 0 019.9 18.3 11 11 0 01-16.3-1 7.6 7.6 0 00-11.2-.7l-18 17.9c-2.6-2.7-5.3-5.2-8.1-7.5l18.2-18.3zm-194.6 5.7c-3 0-4.8 2-6.8 3.9a10.9 10.9 0 11-5.5-18.3c5.2 1 10-3.7 8.9-8.9a10.9 10.9 0 1117.3 6.4 7.6 7.6 0 00-.7 11.2l18.2 18.3c-2.8 2.3-5.5 4.8-8.1 7.5l-18-18a7.7 7.7 0 00-5.3-2.1zm5.7 99.5a98.3 98.3 0 01196.4 0c0 23-7.7 38-24.2 46.8a28 28 0 00-14.9 24.6v4c0 5-4 9.5-9.1 9.5-5 0-9.2-4-9.2-9.1a7.5 7.5 0 00-15 0 9.2 9.2 0 01-18.3 0 7.5 7.5 0 00-15 0 9.2 9.2 0 01-18.3 0 7.5 7.5 0 00-15 0c0 5-4.1 9.1-9.2 9.1a9.4 9.4 0 01-9-8c-.5-3 0-6.4-.5-9.6a28 28 0 00-14.5-20.5c-16.5-8.9-24.2-23.7-24.2-46.8zm-.4 84l21.2-21a13 13 0 013.3 8.4v4L185 307.4a7.6 7.6 0 00.7 11.3 11 11 0 011 16.2 10.9 10.9 0 01-18.3-9.9c1-4.5-2.7-9-7.4-9-1.2 0-2.4.4-3.7.4-2.9 0-5.6-1.1-7.7-3.2-6.7-6.7-1.7-18.5 7.7-18.5a11 11 0 018.6 4.2c2.7 3.5 8 3.8 11.2.7z"/></g></svg>